<svg width="57" height="55" viewBox="0 0 57 55" fill="none" xmlns="http://www.w3.org/2000/svg">
<path d="M11.3314 41.3128C13.7043 39.5524 16.3564 38.1648 19.2877 37.1501C22.2189 36.1354 25.2897 35.6271 28.5002 35.6253C31.7106 35.6235 34.7814 36.1318 37.7127 37.1501C40.6439 38.1685 43.296 39.556 45.6689 41.3128C47.2974 39.4621 48.5657 37.3632 49.474 35.016C50.3822 32.6687 50.8354 30.1635 50.8335 27.5003C50.8335 21.4969 48.6588 16.3844 44.3094 12.163C39.96 7.94165 34.6902 5.83185 28.5002 5.83366C22.3101 5.83546 17.0404 7.94616 12.691 12.1657C8.34154 16.3853 6.16683 21.4969 6.16683 27.5003C6.16683 30.1635 6.62094 32.6687 7.52917 35.016C8.43739 37.3632 9.7048 39.4621 11.3314 41.3128ZM28.5002 30.2087C25.755 30.2087 23.4398 29.295 21.5545 27.4678C19.6692 25.6406 18.7275 23.3945 18.7293 20.7295C18.7312 18.0645 19.6738 15.8184 21.5573 13.9912C23.4407 12.1639 25.755 11.2503 28.5002 11.2503C31.2453 11.2503 33.5605 12.1648 35.4458 13.9939C37.3311 15.8229 38.2729 18.0681 38.271 20.7295C38.2691 23.3909 37.3274 25.637 35.4458 27.4678C33.5642 29.2987 31.249 30.2123 28.5002 30.2087ZM28.5002 54.5837C24.6384 54.5837 21.0092 53.8723 17.6127 52.4495C14.2161 51.0267 11.2616 49.0975 8.74913 46.6618C6.23663 44.2261 4.24803 41.3598 2.78333 38.0628C1.31864 34.7659 0.585361 31.245 0.5835 27.5003C0.581639 23.7556 1.31492 20.2348 2.78333 16.9378C4.25175 13.6409 6.24035 10.7746 8.74913 8.33887C11.2579 5.90317 14.2124 3.97394 17.6127 2.55116C21.0129 1.12838 24.6421 0.416992 28.5002 0.416992C32.3582 0.416992 35.9874 1.12838 39.3877 2.55116C42.7879 3.97394 45.7424 5.90317 48.2512 8.33887C50.76 10.7746 52.7495 13.6409 54.2198 16.9378C55.6901 20.2348 56.4224 23.7556 56.4168 27.5003C56.4113 31.245 55.678 34.7659 54.217 38.0628C52.756 41.3598 50.7674 44.2261 48.2512 46.6618C45.735 49.0975 42.7805 51.0276 39.3877 52.4522C35.9949 53.8768 32.3657 54.5873 28.5002 54.5837Z" fill="black"/>
</svg>
