<svg id="visual" viewBox="0 0 900 600" width="900" height="600" xmlns="http://www.w3.org/2000/svg" xmlns:xlink="http://www.w3.org/1999/xlink" version="1.1"><path d="M0 414L25 419.5C50 425 100 436 150 433.7C200 431.3 250 415.7 300 408.5C350 401.3 400 402.7 450 407.8C500 413 550 422 600 434.8C650 447.7 700 464.3 750 462.7C800 461 850 441 875 431L900 421L900 601L875 601C850 601 800 601 750 601C700 601 650 601 600 601C550 601 500 601 450 601C400 601 350 601 300 601C250 601 200 601 150 601C100 601 50 601 25 601L0 601Z" fill="#764ba2"></path><path d="M0 474L25 467.7C50 461.3 100 448.7 150 456.2C200 463.7 250 491.3 300 495.2C350 499 400 479 450 464.5C500 450 550 441 600 449.3C650 457.7 700 483.3 750 497.7C800 512 850 515 875 516.5L900 518L900 601L875 601C850 601 800 601 750 601C700 601 650 601 600 601C550 601 500 601 450 601C400 601 350 601 300 601C250 601 200 601 150 601C100 601 50 601 25 601L0 601Z" fill="#755cba"></path><path d="M0 534L25 534.3C50 534.7 100 535.3 150 530.7C200 526 250 516 300 513.2C350 510.3 400 514.7 450 512.3C500 510 550 501 600 493.7C650 486.3 700 480.7 750 484.8C800 489 850 503 875 510L900 517L900 601L875 601C850 601 800 601 750 601C700 601 650 601 600 601C550 601 500 601 450 601C400 601 350 601 300 601C250 601 200 601 150 601C100 601 50 601 25 601L0 601Z" fill="#706dd2"></path><path d="M0 544L25 542C50 540 100 536 150 538.5C200 541 250 550 300 547.3C350 544.7 400 530.3 450 530.2C500 530 550 544 600 549.5C650 555 700 552 750 544.7C800 537.3 850 525.7 875 519.8L900 514L900 601L875 601C850 601 800 601 750 601C700 601 650 601 600 601C550 601 500 601 450 601C400 601 350 601 300 601C250 601 200 601 150 601C100 601 50 601 25 601L0 601Z" fill="#667eea"></path></svg>